{
  "accessors": [
    {
      "bufferView": 2,
      "componentType": 5126,
      "count": 65533,
      "max": [
        67.69226837158203,
        98.26628875732422,
        155.3590545654297
      ],
      "min": [
        -67.69226837158203,
        0.0,
        -152.5966796875
      ],
      "type": "VEC3"
    },
    {
      "bufferView": 2,
      "byteOffset": 786396,
      "componentType": 5126,
      "count": 65533,
      "max": [
        1.0,
        1.0,
        1.0
      ],
      "min": [
        -1.0,
        -1.0,
        -1.0
      ],
      "type": "VEC3"
    },
    {
      "bufferView": 1,
      "componentType": 5126,
      "count": 65533,
      "max": [
        0.9985349774360657,
        0.9985349774360657
      ],
      "min": [
        0.0015870928764343262,
        0.0015870928764343262
      ],
      "type": "VEC2"
    },
    {
      "bufferView": 1,
      "byteOffset": 524264,
      "componentType": 5126,
      "count": 65533,
      "max": [
        0.9985349774360657,
        0.9985349774360657
      ],
      "min": [
        0.0015870928764343262,
        0.0015870928764343262
      ],
      "type": "VEC2"
    },
    {
      "bufferView": 1,
      "byteOffset": 1048528,
      "componentType": 5126,
      "count": 65533,
      "max": [
        0.9985349774360657,
        0.9985349774360657
      ],
      "min": [
        0.0015870928764343262,
        0.0015870928764343262
      ],
      "type": "VEC2"
    },
    {
      "bufferView": 0,
      "componentType": 5125,
      "count": 67626,
      "type": "SCALAR"
    },
    {
      "bufferView": 2,
      "byteOffset": 1572792,
      "componentType": 5126,
      "count": 14037,
      "max": [
        59.40424346923828,
        68.5037612915039,
        115.86358642578125
      ],
      "min": [
        -59.40424346923828,
        0.0,
        -151.91952514648438
      ],
      "type": "VEC3"
    },
    {
      "bufferView": 2,
      "byteOffset": 1741236,
      "componentType": 5126,
      "count": 14037,
      "max": [
        1.0,
        1.0,
        1.0
      ],
      "min": [
        -1.0,
        -1.0,
        -1.0
      ],
      "type": "VEC3"
    },
    {
      "bufferView": 1,
      "byteOffset": 1572792,
      "componentType": 5126,
      "count": 14037,
      "max": [
        0.992922306060791,
        0.9975199103355408
      ],
      "min": [
        0.0015870928764343262,
        0.0015870928764343262
      ],
      "type": "VEC2"
    },
    {
      "bufferView": 1,
      "byteOffset": 1685088,
      "componentType": 5126,
      "count": 14037,
      "max": [
        0.992922306060791,
        0.9975199103355408
      ],
      "min": [
        0.0015870928764343262,
        0.0015870928764343262
      ],
      "type": "VEC2"
    },
    {
      "bufferView": 1,
      "byteOffset": 1797384,
      "componentType": 5126,
      "count": 14037,
      "max": [
        0.992922306060791,
        0.9975199103355408
      ],
      "min": [
        0.0015870928764343262,
        0.0015870928764343262
      ],
      "type": "VEC2"
    },
    {
      "bufferView": 0,
      "byteOffset": 270504,
      "componentType": 5125,
      "count": 14733,
      "type": "SCALAR"
    },
    {
      "bufferView": 2,
      "byteOffset": 1909680,
      "componentType": 5126,
      "count": 384,
      "max": [
        56.32041931152344,
        53.988792419433594,
        147.90826416015625
      ],
      "min": [
        -56.320404052734375,
        40.177093505859375,
        121.33285522460938
      ],
      "type": "VEC3"
    },
    {
      "bufferView": 2,
      "byteOffset": 1914288,
      "componentType": 5126,
      "count": 384,
      "max": [
        0.9342300891876221,
        0.7055230736732483,
        0.8735360503196716
      ],
      "min": [
        -0.9342300891876221,
        0.20893490314483643,
        0.23292922973632813
      ],
      "type": "VEC3"
    },
    {
      "bufferView": 1,
      "byteOffset": 1909680,
      "componentType": 5126,
      "count": 384,
      "max": [
        0.5455359220504761,
        0.7896853089332581
      ],
      "min": [
        0.4009358882904053,
        0.7432926893234253
      ],
      "type": "VEC2"
    },
    {
      "bufferView": 1,
      "byteOffset": 1912752,
      "componentType": 5126,
      "count": 384,
      "max": [
        0.5455359220504761,
        0.7896853089332581
      ],
      "min": [
        0.4009358882904053,
        0.7432926893234253
      ],
      "type": "VEC2"
    },
    {
      "bufferView": 1,
      "byteOffset": 1915824,
      "componentType": 5126,
      "count": 384,
      "max": [
        0.5455359220504761,
        0.7896853089332581
      ],
      "min": [
        0.4009358882904053,
        0.7432926893234253
      ],
      "type": "VEC2"
    },
    {
      "bufferView": 0,
      "byteOffset": 329436,
      "componentType": 5125,
      "count": 384,
      "type": "SCALAR"
    }
  ],
  "asset": {
    "extras": {
      "author": "exoad (https://sketchfab.com/Chunkyfungus123)",
      "license": "CC-BY-4.0 (http://creativecommons.org/licenses/by/4.0/)",
      "source": "https://sketchfab.com/3d-models/red-car-e9682f3ffef44d9db7283725f3e00b1d",
      "title": "Red Car"
    },
    "generator": "Sketchfab-12.66.0",
    "version": "2.0"
  },
  "bufferViews": [
    {
      "buffer": 0,
      "byteLength": 330972,
      "name": "floatBufferViews",
      "target": 34963
    },
    {
      "buffer": 0,
      "byteLength": 1918896,
      "byteOffset": 330972,
      "byteStride": 8,
      "name": "floatBufferViews",
      "target": 34962
    },
    {
      "buffer": 0,
      "byteLength": 1918896,
      "byteOffset": 2249868,
      "byteStride": 12,
      "name": "floatBufferViews",
      "target": 34962
    }
  ],
  "buffers": [
    {
      "byteLength": 4168764,
      "uri": "scene.bin"
    }
  ],
  "extensionsRequired": [
    "KHR_materials_pbrSpecularGlossiness"
  ],
  "extensionsUsed": [
    "KHR_materials_pbrSpecularGlossiness"
  ],
  "images": [
    {
      "uri": "textures/material_0_diffuse.png"
    },
    {
      "uri": "textures/material_0_specularGlossiness.png"
    },
    {
      "uri": "textures/material_1_diffuse.png"
    }
  ],
  "materials": [
    {
      "doubleSided": true,
      "extensions": {
        "KHR_materials_pbrSpecularGlossiness": {
          "diffuseFactor": [
            1.0,
            1.0,
            1.0,
            1.0
          ],
          "diffuseTexture": {
            "index": 0
          },
          "glossinessFactor": 1.0,
          "specularFactor": [
            1.0,
            1.0,
            1.0
          ],
          "specularGlossinessTexture": {
            "index": 1,
            "texCoord": 1
          }
        }
      },
      "name": "material_0"
    },
    {
      "alphaMode": "BLEND",
      "doubleSided": true,
      "extensions": {
        "KHR_materials_pbrSpecularGlossiness": {
          "diffuseFactor": [
            1.0,
            1.0,
            1.0,
            1.0
          ],
          "diffuseTexture": {
            "index": 2
          },
          "glossinessFactor": 1.0,
          "specularFactor": [
            1.0,
            1.0,
            1.0
          ],
          "specularGlossinessTexture": {
            "index": 1
          }
        }
      },
      "name": "material_1"
    }
  ],
  "meshes": [
    {
      "name": "Object_0",
      "primitives": [
        {
          "attributes": {
            "NORMAL": 1,
            "POSITION": 0,
            "TEXCOORD_0": 2,
            "TEXCOORD_1": 3,
            "TEXCOORD_2": 4
          },
          "indices": 5,
          "material": 0,
          "mode": 4
        }
      ]
    },
    {
      "name": "Object_1",
      "primitives": [
        {
          "attributes": {
            "NORMAL": 7,
            "POSITION": 6,
            "TEXCOORD_0": 8,
            "TEXCOORD_1": 9,
            "TEXCOORD_2": 10
          },
          "indices": 11,
          "material": 0,
          "mode": 4
        }
      ]
    },
    {
      "name": "Object_2",
      "primitives": [
        {
          "attributes": {
            "NORMAL": 13,
            "POSITION": 12,
            "TEXCOORD_0": 14,
            "TEXCOORD_1": 15,
            "TEXCOORD_2": 16
          },
          "indices": 17,
          "material": 1,
          "mode": 4
        }
      ]
    }
  ],
  "nodes": [
    {
      "children": [
        1
      ],
      "matrix": [
        1.0,
        0.0,
        0.0,
        0.0,
        0.0,
        2.220446049250313e-16,
        -1.0,
        0.0,
        0.0,
        1.0,
        2.220446049250313e-16,
        0.0,
        0.0,
        0.0,
        0.0,
        1.0
      ],
      "name": "Sketchfab_model"
    },
    {
      "children": [
        2
      ],
      "name": "root"
    },
    {
      "children": [
        3
      ],
      "matrix": [
        1.0,
        0.0,
        0.0,
        0.0,
        0.0,
        2.220446049250313e-16,
        1.0,
        0.0,
        0.0,
        -1.0,
        2.220446049250313e-16,
        0.0,
        0.0,
        0.0,
        0.0,
        1.0
      ],
      "name": "GLTF_SceneRootNode"
    },
    {
      "children": [
        4
      ],
      "matrix": [
        0.009999999776482582,
        0.0,
        0.0,
        0.0,
        0.0,
        0.009999999776482582,
        0.0,
        0.0,
        0.0,
        0.0,
        0.009999999776482582,
        0.0,
        0.0,
        0.0,
        0.0,
        1.0
      ],
      "name": "RootNode.0_0"
    },
    {
      "children": [
        5,
        8
      ],
      "name": "car.1_1"
    },
    {
      "children": [
        6,
        7
      ],
      "name": "_2"
    },
    {
      "mesh": 0,
      "name": "Object_6"
    },
    {
      "mesh": 1,
      "name": "Object_7"
    },
    {
      "children": [
        9
      ],
      "name": "_3"
    },
    {
      "mesh": 2,
      "name": "Object_9"
    }
  ],
  "samplers": [
    {
      "magFilter": 9729,
      "minFilter": 9987,
      "wrapS": 10497,
      "wrapT": 10497
    }
  ],
  "scene": 0,
  "scenes": [
    {
      "name": "Sketchfab_Scene",
      "nodes": [
        0
      ]
    }
  ],
  "textures": [
    {
      "sampler": 0,
      "source": 0
    },
    {
      "sampler": 0,
      "source": 1
    },
    {
      "sampler": 0,
      "source": 2
    }
  ]
}
